<?xml version="1.0" encoding="utf-8"?>
<!-- Generator: Adobe Illustrator 21.0.0, SVG Export Plug-In . SVG Version: 6.00 Build 0)  -->
<svg version="1.1" id="Layer_1" xmlns="http://www.w3.org/2000/svg" xmlns:xlink="http://www.w3.org/1999/xlink" x="0px" y="0px"
	 viewBox="0 0 320.4 45.4" style="enable-background:new 0 0 320.4 45.4;" xml:space="preserve">
<style type="text/css">
	.st0{fill:#3865F2;}
</style>
<g>
	<path d="M94.2,15.6c-0.1-1.4-0.7-2.4-1.8-3.2c-1-0.8-2.4-1.1-4.2-1.1c-1.2,0-2.2,0.2-3.1,0.5c-0.8,0.3-1.5,0.8-1.9,1.4
		c-0.4,0.6-0.7,1.3-0.7,2c0,0.6,0.1,1.2,0.4,1.6c0.3,0.5,0.7,0.9,1.2,1.2c0.5,0.3,1.1,0.6,1.8,0.9c0.7,0.2,1.4,0.5,2.2,0.6l3.1,0.8
		c1.5,0.3,2.9,0.8,4.2,1.4c1.3,0.6,2.4,1.3,3.3,2.1s1.7,1.8,2.2,2.9s0.8,2.4,0.8,3.9c0,2.1-0.6,4-1.6,5.6c-1.1,1.6-2.6,2.8-4.6,3.6
		c-2,0.9-4.5,1.3-7.3,1.3s-5.3-0.4-7.4-1.3c-2.1-0.9-3.7-2.1-4.9-3.9c-1.2-1.7-1.8-3.8-1.8-6.3h7.2c0.1,1.2,0.4,2.1,1,2.9
		c0.6,0.8,1.4,1.4,2.4,1.8c1,0.4,2.1,0.6,3.4,0.6s2.3-0.2,3.3-0.5c0.9-0.4,1.6-0.9,2.2-1.5c0.5-0.6,0.8-1.4,0.8-2.2
		c0-0.8-0.2-1.4-0.7-2c-0.5-0.5-1.1-1-2-1.4s-2-0.7-3.2-1l-3.8-1c-3-0.7-5.3-1.8-7-3.4c-1.7-1.5-2.6-3.6-2.5-6.2
		c0-2.1,0.6-4,1.7-5.6s2.7-2.8,4.7-3.7s4.3-1.3,6.8-1.3c2.6,0,4.9,0.4,6.8,1.3s3.5,2.1,4.5,3.7c1.1,1.6,1.6,3.4,1.7,5.5
		C101.4,15.6,94.2,15.6,94.2,15.6z"/>
	<path d="M114.1,41c-1.7,0-3.2-0.3-4.5-0.9c-1.3-0.6-2.3-1.5-3.1-2.6c-0.8-1.2-1.1-2.6-1.1-4.3c0-1.5,0.3-2.7,0.8-3.7
		s1.3-1.8,2.2-2.4c0.9-0.6,2-1.1,3.2-1.4s2.4-0.5,3.7-0.6c1.5-0.2,2.8-0.3,3.7-0.5c0.9-0.1,1.6-0.4,2-0.6c0.4-0.3,0.6-0.7,0.6-1.3
		v-0.1c0-1.1-0.3-1.9-1-2.5s-1.6-0.9-2.9-0.9s-2.4,0.3-3.1,0.9c-0.8,0.6-1.3,1.3-1.5,2.2l-6.7-0.5c0.3-1.6,1-3,2-4.1
		c1-1.2,2.3-2.1,3.9-2.7c1.6-0.6,3.4-0.9,5.5-0.9c1.5,0,2.9,0.2,4.2,0.5c1.3,0.3,2.5,0.9,3.6,1.6c1,0.7,1.9,1.6,2.5,2.8
		c0.6,1.1,0.9,2.5,0.9,4v17.7h-7v-3.6h-0.2c-0.4,0.8-1,1.5-1.7,2.2c-0.7,0.6-1.6,1.1-2.5,1.5C116.5,40.9,115.4,41,114.1,41z
		 M116.2,36c1.1,0,2-0.2,2.8-0.6c0.8-0.4,1.5-1,1.9-1.7c0.5-0.7,0.7-1.6,0.7-2.5v-2.8c-0.2,0.1-0.5,0.3-0.9,0.4s-0.8,0.2-1.3,0.3
		c-0.5,0.1-1,0.2-1.5,0.3c-0.5,0.1-0.9,0.1-1.3,0.2c-0.9,0.1-1.6,0.3-2.2,0.6c-0.6,0.3-1.1,0.6-1.5,1.1s-0.5,1-0.5,1.7
		c0,1,0.4,1.7,1.1,2.3C114.1,35.8,115.1,36,116.2,36z"/>
	<path d="M142,41c-1.7,0-3.2-0.3-4.5-0.9c-1.3-0.6-2.3-1.5-3.1-2.6c-0.8-1.2-1.1-2.6-1.1-4.3c0-1.5,0.3-2.7,0.8-3.7s1.3-1.8,2.2-2.4
		s2-1.1,3.2-1.4s2.4-0.5,3.7-0.6c1.5-0.2,2.8-0.3,3.7-0.5c0.9-0.1,1.6-0.4,2-0.6c0.4-0.3,0.6-0.7,0.6-1.3v-0.1c0-1.1-0.3-1.9-1-2.5
		s-1.6-0.9-2.9-0.9c-1.3,0-2.4,0.3-3.1,0.9c-0.8,0.6-1.3,1.3-1.5,2.2l-6.7-0.5c0.3-1.6,1-3,2-4.1c1-1.2,2.3-2.1,3.9-2.7
		c1.6-0.6,3.4-0.9,5.5-0.9c1.5,0,2.9,0.2,4.2,0.5s2.5,0.9,3.6,1.6c1,0.7,1.9,1.6,2.5,2.8c0.6,1.1,0.9,2.5,0.9,4v17.7H150v-3.6h-0.2
		c-0.4,0.8-1,1.5-1.7,2.2c-0.7,0.6-1.6,1.1-2.5,1.5C144.5,40.9,143.3,41,142,41z M144.1,36c1.1,0,2-0.2,2.8-0.6s1.5-1,1.9-1.7
		c0.5-0.7,0.7-1.6,0.7-2.5v-2.8c-0.2,0.1-0.5,0.3-0.9,0.4s-0.8,0.2-1.3,0.3c-0.5,0.1-1,0.2-1.5,0.3c-0.5,0.1-0.9,0.1-1.3,0.2
		c-0.9,0.1-1.6,0.3-2.2,0.6c-0.6,0.3-1.1,0.6-1.5,1.1s-0.5,1-0.5,1.7c0,1,0.4,1.7,1.1,2.3C142.1,35.8,143,36,144.1,36z"/>
	<path d="M181.5,15.6c-0.1-1.4-0.7-2.4-1.8-3.2c-1-0.8-2.4-1.1-4.2-1.1c-1.2,0-2.2,0.2-3.1,0.5s-1.5,0.8-1.9,1.4
		c-0.4,0.6-0.7,1.3-0.7,2c0,0.6,0.1,1.2,0.4,1.6c0.3,0.5,0.7,0.9,1.2,1.2c0.5,0.3,1.1,0.6,1.8,0.9c0.7,0.2,1.4,0.5,2.2,0.6l3.1,0.8
		c1.5,0.3,2.9,0.8,4.2,1.4s2.4,1.3,3.3,2.1s1.7,1.8,2.2,2.9s0.8,2.4,0.8,3.9c0,2.1-0.6,4-1.6,5.6c-1.1,1.6-2.6,2.8-4.6,3.6
		c-2,0.9-4.5,1.3-7.3,1.3s-5.3-0.4-7.4-1.3c-2.1-0.9-3.7-2.1-4.9-3.9c-1.2-1.7-1.8-3.8-1.8-6.3h7.2c0.1,1.2,0.4,2.1,1,2.9
		c0.6,0.8,1.4,1.4,2.4,1.8c1,0.4,2.1,0.6,3.4,0.6c1.3,0,2.3-0.2,3.3-0.5c0.9-0.4,1.6-0.9,2.2-1.5c0.5-0.6,0.8-1.4,0.8-2.2
		c0-0.8-0.2-1.4-0.7-2c-0.5-0.5-1.1-1-2-1.4s-2-0.7-3.2-1l-3.8-1c-3-0.7-5.3-1.8-7-3.4c-1.7-1.5-2.6-3.6-2.5-6.2
		c0-2.1,0.6-4,1.7-5.6c1.1-1.6,2.7-2.8,4.7-3.7s4.3-1.3,6.8-1.3c2.6,0,4.9,0.4,6.8,1.3c1.9,0.9,3.5,2.1,4.5,3.7
		c1.1,1.6,1.6,3.4,1.7,5.5C188.7,15.6,181.5,15.6,181.5,15.6z"/>
	<path class="st0" d="M217.3,16.9c-0.2-0.8-0.6-1.6-1-2.2c-0.4-0.6-1-1.2-1.6-1.6c-0.6-0.5-1.3-0.8-2.1-1s-1.7-0.4-2.6-0.4
		c-1.8,0-3.4,0.4-4.7,1.3c-1.3,0.9-2.4,2.2-3.2,3.9s-1.1,3.8-1.1,6.2s0.4,4.5,1.1,6.2c0.7,1.7,1.8,3,3.1,3.9c1.4,0.9,3,1.3,4.8,1.3
		c1.7,0,3.1-0.3,4.3-0.9c1.2-0.6,2.1-1.4,2.7-2.5c0.6-1.1,0.9-2.4,0.9-3.9l1.5,0.2h-9v-5.6H225v4.4c0,3.1-0.6,5.7-1.9,7.9
		c-1.3,2.2-3.1,3.9-5.4,5.1c-2.3,1.2-4.9,1.8-7.8,1.8c-3.3,0-6.2-0.7-8.6-2.2c-2.5-1.5-4.4-3.5-5.8-6.2c-1.4-2.7-2.1-5.9-2.1-9.6
		c0-2.8,0.4-5.4,1.2-7.6s2-4.1,3.5-5.7c1.5-1.5,3.2-2.7,5.2-3.5s4.1-1.2,6.4-1.2c2,0,3.8,0.3,5.5,0.9s3.2,1.4,4.5,2.4
		s2.4,2.3,3.3,3.7c0.8,1.4,1.4,3,1.6,4.8h-7.3V16.9z"/>
	<path class="st0" d="M230.5,40.5V14.3h7.1v4.6h0.3c0.5-1.6,1.3-2.9,2.4-3.7c1.1-0.8,2.4-1.3,3.9-1.3c0.4,0,0.8,0,1.2,0.1
		c0.4,0,0.8,0.1,1.1,0.2v6.5c-0.3-0.1-0.8-0.2-1.4-0.3c-0.6-0.1-1.2-0.1-1.7-0.1c-1.1,0-2,0.2-2.9,0.7c-0.8,0.5-1.5,1.1-2,1.9
		s-0.7,1.8-0.7,2.8v14.8H230.5z"/>
	<path class="st0" d="M253.8,10.9c-1.1,0-2-0.4-2.8-1.1c-0.8-0.7-1.2-1.6-1.2-2.6s0.4-1.9,1.2-2.6s1.7-1.1,2.8-1.1s2,0.4,2.8,1.1
		c0.8,0.7,1.2,1.6,1.2,2.6s-0.4,1.9-1.2,2.6C255.8,10.6,254.9,10.9,253.8,10.9z M250.2,40.5V14.3h7.3v26.2H250.2z"/>
	<path class="st0" d="M272.9,41c-2,0-3.8-0.5-5.4-1.5s-2.9-2.5-3.8-4.6c-0.9-2-1.4-4.5-1.4-7.4c0-3,0.5-5.5,1.5-7.5s2.3-3.5,3.9-4.5
		s3.4-1.5,5.3-1.5c1.5,0,2.7,0.2,3.7,0.7s1.8,1.1,2.4,1.8c0.6,0.7,1.1,1.5,1.4,2.2h0.2V5.6h7.3v35h-7.2v-4.2h-0.3
		c-0.3,0.7-0.8,1.4-1.4,2.2c-0.6,0.7-1.4,1.3-2.4,1.8C275.5,40.7,274.3,41,272.9,41z M275.2,35.2c1.2,0,2.2-0.3,3-1
		c0.8-0.6,1.4-1.5,1.9-2.7c0.4-1.2,0.7-2.5,0.7-4.1s-0.2-2.9-0.6-4.1c-0.4-1.1-1.1-2-1.9-2.7s-1.8-0.9-3-0.9s-2.2,0.3-3,1
		c-0.8,0.6-1.4,1.5-1.9,2.7c-0.4,1.2-0.6,2.5-0.6,4s0.2,2.9,0.6,4c0.4,1.2,1,2.1,1.9,2.7C273,34.9,274,35.2,275.2,35.2z"/>
	<path class="st0" d="M315.6,21.8l-6.7,0.4c-0.1-0.6-0.4-1.1-0.7-1.5c-0.4-0.5-0.9-0.8-1.5-1.1c-0.6-0.3-1.3-0.4-2.2-0.4
		c-1.1,0-2.1,0.2-2.9,0.7s-1.2,1.1-1.2,1.9c0,0.6,0.3,1.2,0.8,1.6s1.4,0.8,2.6,1l4.7,1c2.5,0.5,4.4,1.4,5.7,2.5
		c1.3,1.2,1.9,2.7,1.9,4.6c0,1.7-0.5,3.2-1.5,4.5s-2.4,2.3-4.1,3s-3.8,1.1-6,1.1c-3.5,0-6.2-0.7-8.3-2.2c-2.1-1.5-3.3-3.4-3.6-5.9
		l7.2-0.4c0.2,1.1,0.7,1.9,1.6,2.4c0.8,0.6,1.9,0.8,3.2,0.8c1.3,0,2.3-0.2,3.1-0.7s1.2-1.1,1.2-1.9c0-0.7-0.3-1.2-0.8-1.6
		s-1.4-0.8-2.5-1l-4.5-0.9c-2.6-0.5-4.5-1.4-5.7-2.7c-1.2-1.3-1.9-2.9-1.9-4.8c0-1.7,0.5-3.1,1.4-4.4c0.9-1.2,2.2-2.2,3.9-2.8
		c1.7-0.7,3.6-1,5.9-1c3.3,0,5.9,0.7,7.8,2.1C314.2,17.5,315.3,19.4,315.6,21.8z"/>
	<path class="st0" d="M44,2.6H22.8c-5.5,0-10.5,2.3-14.1,5.9s-5.9,8.6-5.9,14.1c0,11,9,20,20,20H44c5.5,0,10.5-2.3,14.2-5.9
		c3.6-3.6,5.9-8.6,5.9-14.1C64,11.5,55.1,2.6,44,2.6z M43.4,38C34.9,38,28,31.1,28,22.6S34.9,7.1,43.4,7.1c8.6,0,15.5,6.9,15.5,15.5
		S52,38,43.4,38z"/>
</g>
</svg>
